<?xml version="1.0" encoding="utf-8"?>
<!-- Generator: Adobe Illustrator 27.8.1, SVG Export Plug-In . SVG Version: 6.00 Build 0)  -->
<svg version="1.1" id="Layer_1" xmlns="http://www.w3.org/2000/svg" xmlns:xlink="http://www.w3.org/1999/xlink" x="0px" y="0px"
	 viewBox="0 0 100 83.31" style="enable-background:new 0 0 100 83.31;" xml:space="preserve">
<style type="text/css">
	.st0{fill:#573319;}
	.st1{fill:#020101;}
	.st2{fill:#111324;}
	.st3{fill:#9A7032;}
	.st4{fill:#865A29;}
</style>
<g>
	<path class="st0" d="M35.37,4.17l0.02-0.03c0,0,0.04,0.01,0.04,0.01c2.64,0,5.29,0.01,7.93,0.02c0.3,0,0.41-0.1,0.4-0.4
		c-0.02-0.58-0.01-1.16-0.01-1.74c0,0,0,0.01,0,0.01c2.15,0,4.31,0.01,6.46,0.01c2.7,0,5.4-0.01,8.1-0.02c0,0-0.01-0.01-0.01-0.01
		c0,0.71,0,1.42,0,2.14c-0.21,0-0.42,0.01-0.64,0.01c-1.39,0-1.39,0-1.39,1.36c0,0.07-0.01,0.14,0,0.21
		c0.05,0.42-0.14,0.56-0.55,0.55c-1.08-0.02-2.16,0-3.24-0.01c-0.35-0.01-0.48,0.11-0.45,0.46c0.02,0.35-0.02,0.71,0.01,1.06
		c0.03,0.38-0.08,0.56-0.5,0.52c-0.39-0.03-0.78,0-1.17-0.01c-0.28-0.01-0.38,0.11-0.37,0.38c0.01,0.46-0.01,0.92,0,1.38
		c0.01,0.27-0.09,0.38-0.37,0.37c-0.46-0.01-0.92,0.01-1.38-0.01c-0.27-0.01-0.39,0.09-0.38,0.37c0.02,0.39-0.02,0.78,0.01,1.17
		c0.04,0.46-0.1,0.63-0.58,0.6c-0.45-0.03-1.04-0.2-1.33,0.08c-0.32,0.31-0.11,0.91-0.1,1.37c0.01,0.44-0.13,0.58-0.57,0.57
		c-0.49-0.02-1.13-0.21-1.44,0.07c-0.35,0.32-0.12,0.97-0.11,1.47c0.01,0.45-0.17,0.58-0.6,0.57c-1.18-0.02-2.37,0-3.55,0
		c-0.7-0.21-1.42-0.03-2.13-0.1c0-0.53-0.01-1.06,0.01-1.58c0.01-0.31-0.08-0.46-0.41-0.44c-0.4,0.02-0.81,0.02-1.21,0
		c-0.34-0.02-0.42,0.13-0.41,0.44c0.02,0.53,0.02,1.06,0.02,1.58c0,0.04-0.01,0.07-0.01,0.11c-0.56,0-1.12-0.02-1.68-0.01
		c-0.31,0-0.44-0.12-0.44-0.44c0.01-0.56,0-1.12,0-1.68c0.53,0,1.06-0.01,1.59,0.01c0.31,0.01,0.45-0.07,0.44-0.41
		c-0.07-2.02,0.39-1.56-1.62-1.63c-0.34-0.01-0.43,0.12-0.42,0.44c0.02,0.53,0,1.06,0,1.59c-0.68-0.01-1.36-0.01-2.03-0.02
		c-0.03-0.03-0.05-0.06-0.08-0.09c0.03-0.54,0.07-1.09,0.08-1.63c0.01-0.27,0.1-0.38,0.37-0.37c0.42,0.01,0.85-0.01,1.27,0.01
		c0.29,0.01,0.41-0.09,0.4-0.39c-0.01-1.94-0.02-3.87-0.02-5.81c0,0-0.02,0.02-0.02,0.02c0.54,0,1.09-0.01,1.63,0.01
		c0.31,0.01,0.45-0.09,0.43-0.42C35.37,5.3,35.38,4.74,35.37,4.17z"/>
	<path class="st1" d="M8.39,20.81c0-0.55,0.02-1.1-0.01-1.64c-0.02-0.36,0.11-0.44,0.45-0.44c1.73,0.02,3.47-0.02,5.2,0.02
		c0.54,0.01,0.67-0.15,0.62-0.65c-0.04-0.37,0.01-0.74-0.01-1.11c-0.02-0.29,0.09-0.35,0.36-0.35c2.53,0.01,5.06,0.01,7.59,0
		c0.31,0,0.39,0.1,0.37,0.39c-0.02,0.46,0.01,0.92-0.01,1.38c-0.01,0.25,0.07,0.33,0.33,0.33c1.17-0.01,2.33-0.01,3.5,0
		c0.3,0,0.35-0.11,0.34-0.37c-0.01-1.13,0.01-2.26-0.01-3.4c-0.01-0.32,0.06-0.44,0.4-0.42c0.56,0.03,1.13,0,1.7,0c0,0,0,0,0,0
		c0,1.61,0,3.22-0.01,4.83c0,0.46,0.2,1.05-0.08,1.33c-0.3,0.31-0.91,0.12-1.37,0.09c-0.5-0.03-0.65,0.11-0.65,0.63
		c0.03,3.09,0.01,6.19,0.02,9.29c0,0.39-0.1,0.53-0.5,0.51c-0.51-0.03-1.03-0.01-1.54,0c-0.04,0-0.07-0.01-0.11-0.01
		c0-2.78,0.01-5.57,0.01-8.35c0.01-0.56-0.01-1.12,0.03-1.68c0.03-0.34-0.11-0.38-0.38-0.37c-0.56,0.01-1.12,0-1.68-0.01l0.01,0.01
		c0-0.54,0-1.08-0.01-1.62c0-0.15,0.1-0.37-0.17-0.42c-0.13-0.09-0.27-0.07-0.41-0.07c-2.4,0-4.81,0-7.21,0
		c-0.14,0-0.28-0.02-0.41,0.07c-0.03-0.01-0.05-0.01-0.07,0.02c-0.16,0.67,0,1.35-0.09,2.03c-2.06,0-4.12-0.01-6.18-0.01L8.39,20.81
		z"/>
	<path class="st1" d="M64.57,79.11c0,0.53-0.03,1.06,0.01,1.59c0.03,0.4-0.09,0.5-0.49,0.5c-2.44-0.02-4.88,0-7.32-0.02
		c-0.42,0-0.53,0.12-0.52,0.52c0.01,0.5,0.24,1.18-0.1,1.47c-0.29,0.25-0.94,0.08-1.44,0.08c-4.17,0-8.34,0-12.52,0.01
		c-0.4,0-0.59-0.07-0.53-0.51c0.04-0.3-0.03-0.61,0.02-0.9c0.09-0.58-0.17-0.68-0.69-0.67c-2.39,0.03-4.77,0-7.16,0.02
		c-0.41,0-0.51-0.11-0.49-0.5c0.03-0.53,0-1.06,0-1.59l0,0c2.28,0,4.56,0,6.84,0c0.48,0,1.09-0.15,1.39,0.08
		c0.36,0.28,0.13,0.93,0.12,1.41c-0.01,0.45,0.13,0.57,0.57,0.56c2.62-0.02,5.23-0.01,7.85-0.01c1.87,0,3.75-0.01,5.62,0.01
		c0.37,0,0.52-0.1,0.49-0.48c-0.02-0.33,0.02-0.67-0.01-1.01c-0.04-0.43,0.1-0.58,0.56-0.57C59.37,79.12,61.97,79.11,64.57,79.11
		L64.57,79.11z"/>
	<path class="st1" d="M68.73,8.28c0.55,0.01,1.1,0.05,1.64,0.02c0.38-0.02,0.47,0.1,0.47,0.47c-0.01,3.13,0,6.26-0.02,9.39
		c0,0.44,0.07,0.59,0.56,0.59c2.44-0.03,4.88-0.01,7.32-0.02c0.36,0,0.5,0.08,0.48,0.46c-0.02,0.55,0.01,1.09,0.03,1.64c0,0,0,0,0,0
		c-1.92,0-3.85,0-5.77-0.01c-0.34,0-0.51,0.05-0.51,0.45c0.02,2.61,0.01,5.22,0.02,7.83c-0.51,0-1.03-0.03-1.54,0.01
		c-0.46,0.03-0.6-0.1-0.6-0.58c0.02-2.76,0.02-5.51,0-8.27c0-0.47,0.21-1.08-0.1-1.38c-0.31-0.3-0.91-0.11-1.38-0.08
		c-0.52,0.03-0.65-0.14-0.64-0.65c0.03-1.71,0-3.43,0.02-5.14c0-0.36-0.09-0.51-0.48-0.49c-0.4,0.03-0.81,0.02-1.22,0
		c-0.25-0.01-0.35,0.09-0.34,0.34c0.01,0.44-0.01,0.88,0,1.33c0.01,0.28-0.1,0.37-0.37,0.37c-0.58-0.01-1.17,0-1.75-0.01
		c0-0.68,0-1.35-0.01-2.03l0,0c0.57-0.17,1.15-0.06,1.73-0.08c0.29-0.01,0.41-0.1,0.4-0.4c-0.01-0.54,0-1.09,0-1.64l0,0
		c0.54,0,1.09-0.01,1.63,0c0.29,0.01,0.41-0.1,0.4-0.4c-0.02-0.58-0.01-1.15-0.01-1.73C68.71,8.3,68.73,8.28,68.73,8.28z"/>
	<path class="st1" d="M6.27,56.19c-0.57,0-1.13-0.01-1.7,0.02c-0.31,0.02-0.38-0.1-0.38-0.39c0.01-1.1-0.02-2.19,0.02-3.29
		c0.01-0.42-0.13-0.52-0.51-0.48c-0.39,0.03-0.78-0.02-1.17,0.01c-0.33,0.02-0.41-0.08-0.41-0.41c0.02-1.78,0-3.57,0.02-5.35
		c0-0.38-0.07-0.58-0.48-0.49c-0.02,0-0.04,0-0.05,0c-0.51-0.03-1.18,0.22-1.47-0.1c-0.25-0.28-0.08-0.94-0.08-1.43
		c0-5.55,0-11.1-0.01-16.65c0-0.44,0.1-0.59,0.55-0.56c0.51,0.04,1.02,0.01,1.54,0.01c0,0,0.01,0.01,0.01,0.01c0,2.99,0,5.97,0,8.96
		c0,3.09,0.01,6.18-0.01,9.28c0,0.36,0.09,0.51,0.47,0.48c0.35-0.03,0.71,0.02,1.06-0.01c0.44-0.04,0.58,0.12,0.57,0.57
		c-0.02,1.75,0,3.5-0.01,5.25c0,0.34,0.1,0.47,0.45,0.46c0.53-0.02,1.06,0,1.59,0c0.01,1.37,0.01,2.75,0.02,4.12L6.27,56.19z"/>
	<path class="st1" d="M58.32,2.03c-2.7,0.01-5.4,0.02-8.1,0.02c-2.15,0-4.31-0.01-6.46-0.01c0-0.55,0.02-1.1,0-1.64
		C43.74,0.1,43.81,0,44.13,0c4.61,0.01,9.22,0.01,13.83,0c0.3,0,0.39,0.09,0.38,0.38C58.31,0.93,58.32,1.48,58.32,2.03z"/>
	<path class="st1" d="M91.62,23.05c0,0.64,0.01,1.28,0.01,1.92l0,0c-0.92,0-1.84,0-2.76,0c-1.38,0-1.41,0-1.37-1.37
		c0.01-0.52-0.11-0.69-0.66-0.68c-2.37,0.03-4.73,0.01-7.1,0.02c-0.4,0-0.58-0.08-0.55-0.53c0.04-0.53,0.01-1.06,0.01-1.59
		c0,0,0,0,0,0c2.63,0,5.26,0,7.89-0.02c0.34,0,0.44,0.11,0.39,0.42c0,0.02,0,0.04,0,0.05c0.03,0.52-0.23,1.24,0.11,1.52
		c0.32,0.26,1.01,0.06,1.54,0.08c0.82,0.03,1.65-0.09,2.46,0.06c-0.01,0.01-0.03,0.03-0.03,0.03
		C91.59,23.01,91.61,23.03,91.62,23.05z"/>
	<path class="st1" d="M33.34,6.25c0.01,1.94,0.01,3.87,0.02,5.81c0,0.3-0.11,0.41-0.4,0.39c-0.42-0.02-0.85,0.01-1.27-0.01
		c-0.27-0.01-0.37,0.1-0.37,0.37c-0.01,0.54-0.05,1.09-0.08,1.63c-0.01,0.03-0.01,0.06-0.01,0.08c-0.67,0.01-1.35,0.01-2.02,0.02
		c0,0,0,0,0,0c0-1.94,0-3.88-0.02-5.83c0-0.31,0.06-0.45,0.4-0.42c0.42,0.03,0.85-0.02,1.27,0.02c0.35,0.03,0.42-0.11,0.4-0.42
		c-0.02-0.44,0.01-0.88-0.01-1.32c-0.01-0.26,0.09-0.33,0.34-0.33C32.18,6.26,32.76,6.25,33.34,6.25z"/>
	<path class="st1" d="M97.9,35.37c0.57,0,1.13,0.02,1.7,0c0.28-0.01,0.41,0.05,0.4,0.37c-0.01,2.55-0.01,5.09,0,7.64
		c0,0.27-0.07,0.38-0.35,0.37c-0.58-0.02-1.17,0-1.75,0l0.01,0.01c-0.01-0.1-0.01-0.21-0.02-0.31c0-0.04,0-0.08,0-0.11
		c0-1.94-0.01-3.88-0.01-5.82C97.88,36.8,97.89,36.08,97.9,35.37L97.9,35.37z"/>
	<path class="st1" d="M33.35,79.11c-1.92,0-3.85-0.01-5.77,0.01c-0.42,0.01-0.51-0.13-0.48-0.51c0.03-0.39-0.01-0.78,0.01-1.16
		c0.02-0.32-0.06-0.45-0.4-0.42c-0.4,0.03-0.81-0.02-1.22,0.02c-0.42,0.04-0.51-0.13-0.49-0.51c0.02-0.53-0.01-1.06-0.02-1.58
		c0,0-0.01,0-0.01,0c0.71,0,1.41,0,2.12,0c0.13,0.49,0.08,0.99,0.05,1.47c-0.03,0.48,0.14,0.6,0.6,0.59c1.71-0.03,3.42,0,5.13-0.02
		c0.35,0,0.51,0.07,0.49,0.46C33.34,78.01,33.36,78.56,33.35,79.11L33.35,79.11z"/>
	<path class="st1" d="M43.76,2.03c0,0.58-0.01,1.16,0.01,1.74c0.01,0.3-0.1,0.4-0.4,0.4c-2.64-0.01-5.29-0.01-7.93-0.02
		c0-0.51,0.04-1.02,0.01-1.53c-0.03-0.43,0.09-0.56,0.54-0.56c2.4,0.02,4.8,0.01,7.2,0.01C43.37,2.07,43.57,2.04,43.76,2.03z"/>
	<path class="st1" d="M72.95,74.96c-0.01,0.57-0.03,1.13-0.01,1.7c0.01,0.3-0.07,0.39-0.38,0.39c-1.11-0.02-2.23,0.01-3.34-0.01
		c-0.36-0.01-0.51,0.08-0.48,0.47c0.03,0.42-0.01,0.85,0.01,1.27c0.02,0.29-0.09,0.35-0.36,0.35c-1.27-0.01-2.55,0-3.82,0l0-0.01
		c0-0.67,0.01-1.34,0.01-2.01c0.19-0.14,0.4-0.11,0.61-0.11c1.02,0,2.04-0.01,3.07,0.01c0.33,0.01,0.48-0.09,0.46-0.44
		c-0.03-0.53-0.01-1.06-0.01-1.59l0,0C70.13,74.97,71.54,74.97,72.95,74.96L72.95,74.96z"/>
	<path class="st1" d="M58.31,4.15c0-0.71,0-1.42,0-2.14c0.56,0.11,1.12,0.04,1.68,0.05c1.39,0.01,2.78,0.01,4.17,0
		c0.32,0,0.44,0.07,0.42,0.41c-0.03,0.56-0.01,1.13-0.02,1.69l0,0c-1.63,0.01-3.25,0.01-4.88,0.02c-0.18,0-0.36,0-0.54,0
		c-0.14,0-0.28,0-0.42,0c-0.07,0-0.15,0-0.22,0C58.45,4.17,58.38,4.16,58.31,4.15z"/>
	<path class="st1" d="M85.4,66.61c0,0.53-0.04,1.06,0,1.59c0.03,0.44-0.14,0.53-0.53,0.5c-0.4-0.03-0.81,0.01-1.22-0.01
		c-0.25-0.01-0.34,0.06-0.33,0.32c0.02,0.44-0.02,0.88,0.01,1.32c0.02,0.36-0.08,0.48-0.46,0.48c-1.22-0.02-2.44,0-3.65,0
		c0,0,0,0,0,0c0-0.55,0.01-1.09-0.01-1.64c-0.02-0.36,0.1-0.5,0.48-0.49c1.06,0.02,2.12,0,3.18,0.01c0.28,0,0.41-0.07,0.42-0.38
		c0.01-0.58,0.06-1.16,0.09-1.74c0,0,0,0,0,0c0.67,0,1.34,0,2.01,0L85.4,66.61z"/>
	<path class="st1" d="M97.89,43.74c0,1.92-0.01,3.85,0.01,5.77c0,0.35-0.08,0.46-0.44,0.44c-0.55-0.03-1.09-0.01-1.64-0.01
		l-0.04-0.03c0-1.9,0.02-3.8,0-5.7c0-0.37,0.11-0.5,0.48-0.48C96.81,43.77,97.36,43.75,97.89,43.74L97.89,43.74z"/>
	<path class="st1" d="M8.4,60.43c-0.52-0.1-1.05-0.05-1.58-0.03c-0.4,0.01-0.54-0.08-0.53-0.52c0.02-1.23-0.01-2.46-0.02-3.69
		c0,0,0.01-0.01,0.01-0.01c0.53,0,1.06,0.03,1.58,0c0.42-0.02,0.55,0.14,0.54,0.55C8.39,57.96,8.41,59.19,8.4,60.43L8.4,60.43z"/>
	<path class="st1" d="M77.1,72.85c-0.01,0.53-0.04,1.05-0.01,1.58c0.02,0.4-0.08,0.54-0.51,0.53c-1.21-0.03-2.42,0-3.63,0
		c0,0,0,0,0,0c0-0.71,0.01-1.41,0.01-2.12l0,0c1.38,0,2.76,0,4.14,0L77.1,72.85z"/>
	<path class="st1" d="M93.76,54.15c0,1.23-0.02,2.46,0,3.69c0.01,0.38-0.11,0.48-0.47,0.46c-0.54-0.03-1.09,0-1.64,0
		c0,0-0.01-0.01-0.01-0.01c0-1.38,0-2.76-0.01-4.14c0,0,0,0,0,0C92.34,54.15,93.05,54.15,93.76,54.15L93.76,54.15z"/>
	<path class="st1" d="M91.65,58.31c0,1.25-0.02,2.49,0,3.74c0,0.33-0.09,0.42-0.41,0.4c-0.56-0.02-1.12,0.01-1.68,0.02l-0.04-0.03
		c0-1.38,0.01-2.75,0.01-4.13l0,0c0.7,0,1.41-0.01,2.11-0.01L91.65,58.31z"/>
	<path class="st1" d="M24.99,74.96c-1.22,0-2.44-0.02-3.66,0c-0.38,0.01-0.48-0.11-0.47-0.48c0.01-0.55,0.06-1.09-0.03-1.64
		c0,0,0,0,0,0c1.19,0,2.39,0.03,3.58,0c0.48-0.01,0.61,0.15,0.58,0.6c-0.04,0.51-0.01,1.02-0.01,1.53L24.99,74.96z"/>
	<path class="st1" d="M95.8,31.21c0.54,0.01,1.09,0.04,1.63,0.01c0.36-0.02,0.48,0.07,0.47,0.46c-0.02,1.23-0.01,2.46,0,3.69
		c0,0,0,0,0,0c-0.47,0-0.95-0.03-1.42,0.01c-0.52,0.04-0.72-0.12-0.7-0.67c0.04-1.16,0.01-2.32,0-3.48L95.8,31.21z"/>
	<path class="st1" d="M95.82,49.94c0,1.25-0.03,2.5-0.01,3.74c0.01,0.38-0.12,0.48-0.48,0.46c-0.53-0.03-1.05,0-1.58,0.01l0,0
		c0.01-1.4,0.02-2.81,0.03-4.21c0.66-0.01,1.33-0.02,1.99-0.03C95.78,49.92,95.82,49.94,95.82,49.94z"/>
	<path class="st1" d="M16.69,68.7c-0.64-0.01-1.28-0.01-1.91-0.02c-0.04-0.03-0.07-0.05-0.11-0.08c-0.01-0.51-0.05-1.02-0.02-1.53
		c0.02-0.39-0.12-0.48-0.48-0.46c-0.4,0.03-0.81-0.02-1.22,0.01c-0.34,0.03-0.42-0.11-0.4-0.42c0.02-0.55,0.01-1.09,0.01-1.64
		c0,0,0,0,0,0c0.7,0,1.41,0.01,2.11,0.01l0,0c0,0.53,0.02,1.06-0.01,1.58c-0.02,0.36,0.12,0.46,0.46,0.44c0.35-0.02,0.7,0,1.05-0.01
		c0.36-0.01,0.55,0.12,0.53,0.53C16.67,67.64,16.69,68.17,16.69,68.7L16.69,68.7z"/>
	<path class="st1" d="M93.77,27.08c0.56,0,1.13,0.01,1.69-0.02c0.28-0.01,0.36,0.08,0.35,0.35c-0.02,1.27-0.01,2.53-0.01,3.8
		c0,0-0.02,0.02-0.02,0.02c-0.53,0-1.05-0.02-1.58,0c-0.35,0.02-0.45-0.12-0.45-0.46c0.02-1.23,0.01-2.46,0.01-3.69L93.77,27.08z"/>
	<path class="st1" d="M18.79,70.84c-0.58-0.01-1.16-0.04-1.74-0.03c-0.28,0-0.37-0.09-0.36-0.36c0.01-0.58,0-1.16,0-1.75
		c0,0,0,0,0,0c0.7,0.01,1.4,0.01,2.1,0.02l0,0c0.01,0.7,0.01,1.4,0.02,2.11L18.79,70.84z"/>
	<path class="st1" d="M64.57,4.16c0.56,0,1.12,0.03,1.68,0.01c0.33-0.01,0.46,0.07,0.45,0.43c-0.03,0.56,0,1.12,0.01,1.68
		l-0.01,0.01c-0.57,0-1.13-0.02-1.7-0.01c-0.32,0.01-0.44-0.09-0.43-0.42C64.58,5.29,64.57,4.72,64.57,4.16L64.57,4.16z"/>
	<path class="st1" d="M12.55,64.56c-0.56,0-1.12-0.03-1.68,0c-0.36,0.02-0.44-0.12-0.43-0.45c0.02-0.56-0.01-1.12-0.01-1.68
		c0,0,0,0,0,0c0.71,0,1.41,0,2.12,0h0C12.55,63.15,12.55,63.85,12.55,64.56L12.55,64.56z"/>
	<path class="st1" d="M91.64,24.97c0.56,0,1.12,0.02,1.68,0.01c0.32-0.01,0.44,0.09,0.43,0.42c-0.01,0.56,0.01,1.12,0.02,1.68
		c0,0-0.01,0.01-0.01,0.01c-0.58,0-1.17-0.01-1.75,0c-0.27,0.01-0.38-0.09-0.37-0.37C91.65,26.14,91.64,25.55,91.64,24.97
		C91.64,24.97,91.64,24.97,91.64,24.97z"/>
	<path class="st1" d="M4.18,24.98c0.01-0.58,0.03-1.16,0.02-1.74c-0.01-0.28,0.09-0.36,0.36-0.36c0.58,0.01,1.16-0.01,1.74-0.03
		c0,0-0.01-0.01-0.01-0.01c0,0.71-0.01,1.41-0.01,2.12c0,0,0.01-0.01,0.01-0.01c-0.57,0.02-1.14,0.03-1.7,0.05
		c-0.03-0.02-0.06-0.02-0.09,0C4.38,25,4.27,24.98,4.16,24.97L4.18,24.98z"/>
	<path class="st1" d="M6.3,22.86c0-0.56,0.02-1.13,0-1.69c-0.01-0.28,0.08-0.36,0.36-0.35c0.58,0.02,1.16,0,1.74-0.01
		c0,0,0.01,0.01,0.01,0.01c0,0.71,0,1.42,0,2.12c0,0,0.01-0.01,0.01-0.01c-0.7-0.13-1.41-0.02-2.12-0.1L6.3,22.86z"/>
	<path class="st1" d="M2.13,27.07c0-0.58,0.02-1.16,0.01-1.74c-0.01-0.27,0.07-0.37,0.36-0.36c0.56,0.02,1.12,0,1.69,0
		c0,0-0.01-0.01-0.01-0.01c0.02,0.08,0.04,0.15,0.06,0.23c-0.06,0.57-0.1,1.15,0.02,1.72c0,0.06,0.01,0.11,0.01,0.17l0-0.01
		c-0.71,0-1.41,0-2.12,0.01L2.13,27.07z"/>
	<path class="st1" d="M89.55,62.47c0,0.55-0.02,1.1,0.01,1.64c0.03,0.39-0.13,0.47-0.48,0.45c-0.53-0.03-1.06,0-1.59,0l0,0
		c0-0.71,0-1.41,0.01-2.12c0,0,0,0,0,0c0.67,0,1.34,0,2.02,0L89.55,62.47z"/>
	<path class="st1" d="M35.37,4.17c0.01,0.56,0,1.12,0.02,1.69c0.01,0.33-0.12,0.43-0.43,0.42c-0.54-0.02-1.09-0.01-1.63-0.01
		c0.01-0.58,0.04-1.15,0.03-1.73c-0.01-0.31,0.1-0.38,0.39-0.37C34.29,4.19,34.83,4.17,35.37,4.17z"/>
	<path class="st1" d="M87.5,64.56c0,0.56-0.02,1.12,0,1.68c0.01,0.29-0.06,0.4-0.37,0.38c-0.58-0.03-1.15-0.01-1.73-0.01
		c0,0-0.02-0.03-0.02-0.03c0-0.67,0-1.34,0-2.01l0,0C86.08,64.56,86.79,64.56,87.5,64.56L87.5,64.56z"/>
	<path class="st1" d="M79.21,70.82c-0.01,0.52-0.05,1.05-0.03,1.57c0.01,0.35-0.06,0.51-0.45,0.48c-0.54-0.04-1.09-0.01-1.63-0.01
		l-0.01-0.01c0-0.54,0.01-1.09-0.01-1.63c-0.01-0.3,0.1-0.4,0.4-0.4C78.06,70.83,78.63,70.82,79.21,70.82
		C79.21,70.82,79.21,70.82,79.21,70.82z"/>
	<path class="st1" d="M10.43,62.44c-0.56,0-1.12-0.01-1.68,0.01c-0.26,0.01-0.38-0.05-0.36-0.34c0.03-0.56,0.02-1.12,0.02-1.68
		c0,0,0.01-0.01,0.01-0.01c0.54,0,1.09,0.01,1.63-0.01c0.3-0.01,0.41,0.1,0.4,0.4C10.42,61.35,10.43,61.89,10.43,62.44
		C10.43,62.44,10.43,62.44,10.43,62.44z"/>
	<path class="st1" d="M20.83,72.84c-0.56,0-1.13-0.01-1.69,0.02c-0.32,0.02-0.38-0.11-0.37-0.39c0.02-0.54,0.01-1.09,0.02-1.63
		c0,0,0.02-0.02,0.02-0.02c0.68-0.01,1.35-0.02,2.03-0.02l0.01,0.01C20.85,71.49,20.84,72.16,20.83,72.84L20.83,72.84z"/>
	<path class="st1" d="M66.7,6.27c0.56-0.01,1.13,0,1.69-0.02c0.26-0.01,0.38,0.05,0.37,0.34c-0.03,0.56-0.02,1.13-0.02,1.69
		c0,0-0.02,0.02-0.02,0.02c-0.67,0-1.34,0-2.01,0C66.69,7.62,66.69,6.95,66.7,6.27C66.69,6.28,66.7,6.27,66.7,6.27z"/>
	<path class="st2" d="M14.67,68.6c0.04,0.03,0.07,0.05,0.11,0.08C14.71,68.7,14.65,68.69,14.67,68.6z"/>
	<path class="st2" d="M91.62,23.05c-0.02-0.02-0.04-0.05-0.05-0.07c0,0,0.02-0.02,0.03-0.03c0.01,0.02,0.02,0.04,0.03,0.07
		C91.64,23.03,91.63,23.04,91.62,23.05z"/>
	<path class="st3" d="M29.21,14.56c0.67-0.01,1.35-0.01,2.02-0.02c0,0,0.04,0.01,0.04,0.01l0.05-0.01c0.68,0.01,1.36,0.01,2.03,0.02
		l0,0c0,0.56,0.01,1.12,0,1.68c-0.01,0.31,0.12,0.44,0.44,0.44c0.56-0.01,1.12,0,1.68,0.01c0,0,0,0,0,0c0,0.49,0.02,0.99-0.01,1.48
		c-0.02,0.4,0.09,0.58,0.53,0.55c0.49-0.03,0.99,0,1.48,0.01c0.01,0.58,0.03,1.16,0.03,1.73c0,0.27,0.1,0.37,0.37,0.37
		c0.58-0.01,1.16,0.01,1.74,0.01c0.01,0.49,0.03,0.99,0.01,1.48c-0.02,0.4,0.08,0.56,0.52,0.54c0.93-0.03,1.86-0.01,2.8-0.01
		c0.28,0,0.57-0.06,0.83,0.1c0,1.22-0.01,2.44,0.01,3.66c0.01,0.37-0.11,0.51-0.48,0.48c-0.37-0.03-0.74,0.01-1.11-0.01
		c-0.36-0.02-0.47,0.12-0.45,0.46c0.02,0.37,0.01,0.74,0,1.11c-0.01,0.32-0.14,0.48-0.49,0.47c-0.42-0.02-0.85,0-1.27-0.01
		c-0.24-0.01-0.35,0.08-0.35,0.34c0.01,1.86,0.01,3.71,0,5.57c0,0.28,0.12,0.37,0.38,0.36c0.32-0.01,0.64-0.01,0.95,0
		c0.87,0.01,0.77-0.12,0.77,0.75c0.01,1.68,0.01,3.36-0.01,5.04c0,0.37,0.12,0.49,0.48,0.48c1.04-0.02,2.09,0.02,3.13-0.02
		c0.46-0.01,0.56,0.15,0.55,0.57c-0.03,1.04,0,2.09-0.02,3.13c-0.01,0.34,0.09,0.49,0.45,0.46c0.37-0.03,0.74,0.02,1.11-0.01
		c0.37-0.03,0.49,0.11,0.48,0.48c-0.02,1.02,0.01,2.05-0.02,3.08c-0.01,0.45,0.09,0.66,0.58,0.6c0.35-0.04,0.71,0.01,1.06-0.01
		c0.36-0.02,0.51,0.08,0.49,0.47c-0.03,0.55-0.01,1.1-0.01,1.64c-4.17,0-8.35,0-12.52,0c0,0,0.01,0.01,0.01,0.01
		c0-0.55-0.02-1.1,0.02-1.64c0.02-0.39-0.14-0.47-0.49-0.47c-1.18,0.02-2.37,0.01-3.55,0.01c-0.03-0.02-0.06-0.03-0.09-0.02
		c-0.01-0.55-0.02-1.09-0.01-1.64c0.01-0.29-0.08-0.41-0.39-0.4c-0.44,0.02-0.88,0-1.32,0c-0.04-0.04-0.08-0.06-0.12-0.01
		c-0.08-0.02-0.16-0.04-0.24-0.06c0-0.02,0.02-0.03,0.01-0.05c-0.01-0.03-0.03-0.06-0.04-0.08c-0.01-0.6-0.02-1.21-0.02-1.81
		c-0.66-0.21-1.35-0.05-2.02-0.09c-0.01-0.51-0.04-1.02-0.01-1.53c0.02-0.38-0.07-0.54-0.49-0.51c-0.54,0.04-1.09,0.01-1.63,0.01
		c0,0,0.01,0.01,0.01,0.01c0-0.56-0.01-1.13,0.02-1.69c0.02-0.36-0.12-0.46-0.46-0.44c-0.53,0.02-1.06,0-1.58,0
		c0-3.46,0-6.93,0-10.39c0.51,0,1.03-0.03,1.54,0c0.4,0.02,0.51-0.12,0.5-0.51c-0.02-3.1,0-6.19-0.02-9.29
		c0-0.52,0.14-0.66,0.65-0.63c0.47,0.03,1.07,0.22,1.37-0.09c0.28-0.29,0.08-0.88,0.08-1.33C29.21,17.78,29.21,16.17,29.21,14.56z"
		/>
	<path class="st4" d="M66.69,6.28c0,0.67,0,1.34,0,2.02c0,0.71,0,1.42,0,2.13c0,0,0,0,0,0c-0.54,0-1.09,0.01-1.63-0.01
		c-0.36-0.01-0.51,0.12-0.5,0.49c0.02,0.54,0,1.09,0,1.63c0,0,0,0,0,0c-0.59-0.02-1.19,0.06-1.78-0.04
		c-0.24-0.04-0.3,0.04-0.28,0.28c0.04,0.59,0.03,1.19,0.05,1.78c0,0,0,0,0,0c-0.56,0-1.12,0.02-1.68,0
		c-0.3-0.01-0.46,0.07-0.44,0.41c0.03,0.54,0.02,1.09,0.02,1.63c-0.01,0.03-0.02,0.05-0.03,0.08c-0.52,0-1.05,0.02-1.57,0
		c-0.39-0.02-0.58,0.07-0.55,0.52c0.04,0.5,0.01,1.01,0.01,1.52c-0.88,0-1.76,0-2.65,0.02c-0.47,0.01-1.07-0.2-1.38,0.09
		c-0.32,0.29-0.06,0.9-0.11,1.37c0,0.03-0.01,0.07,0,0.11c0.06,0.4-0.08,0.55-0.51,0.54c-3.3-0.02-6.6-0.01-9.9-0.01
		c0,0,0.01,0.01,0.01,0.01c-0.01-0.67-0.02-1.35-0.03-2.02c-0.02-0.02-0.05-0.04-0.07-0.05c-1.35-0.02-2.7-0.04-4.04-0.05
		c0,0,0.01,0.01,0.01,0.01c0-0.67,0-1.34,0-2.02c1.18,0,2.37-0.02,3.55,0c0.43,0.01,0.6-0.11,0.6-0.57
		c-0.01-0.5-0.23-1.15,0.11-1.47c0.31-0.29,0.95-0.1,1.44-0.07c0.44,0.02,0.58-0.12,0.57-0.57c-0.01-0.47-0.22-1.07,0.1-1.37
		c0.29-0.28,0.88-0.11,1.33-0.08c0.48,0.03,0.63-0.14,0.58-0.6c-0.04-0.39,0-0.78-0.01-1.17c-0.01-0.28,0.11-0.37,0.38-0.37
		c0.46,0.01,0.92-0.01,1.38,0.01c0.28,0.01,0.38-0.1,0.37-0.37c-0.01-0.46,0.01-0.92,0-1.38c-0.01-0.27,0.09-0.39,0.37-0.38
		c0.39,0.02,0.78-0.02,1.17,0.01c0.41,0.03,0.53-0.14,0.5-0.52c-0.03-0.35,0.01-0.71-0.01-1.06c-0.02-0.35,0.11-0.46,0.45-0.46
		c1.08,0.02,2.16-0.01,3.24,0.01c0.41,0.01,0.6-0.13,0.55-0.55c-0.01-0.07,0-0.14,0-0.21c0-1.36,0-1.36,1.39-1.36
		c0.21,0,0.42-0.01,0.64-0.01c0.07,0.01,0.13,0.02,0.2,0.03c0.07,0.09,0.15,0.09,0.22,0c0.14,0,0.28,0,0.42,0
		c0.18,0.12,0.36,0.12,0.54,0c1.63-0.01,3.25-0.01,4.88-0.02c0,0.57,0.02,1.13,0,1.7C64.55,6.18,64.68,6.28,65,6.27
		C65.56,6.25,66.13,6.27,66.69,6.28z"/>
	<path class="st1" d="M39.62,16.69c0,0.67,0,1.34,0,2.02c-0.68,0-1.36,0-2.03,0c-0.03-0.03-0.05-0.07-0.08-0.1
		c-0.01-0.64-0.01-1.29-0.02-1.93c0-0.03,0-0.06,0-0.09l0,0C38.2,16.66,38.92,16.48,39.62,16.69z"/>
	<path class="st1" d="M35.49,16.58c-0.01-0.53,0-1.06-0.02-1.58c-0.01-0.3,0.07-0.46,0.41-0.44c0.4,0.02,0.81,0.02,1.21,0
		c0.34-0.02,0.42,0.13,0.41,0.44c-0.02,0.53-0.01,1.06-0.01,1.58c0,0,0,0,0,0c-0.21,0.03-0.43-0.07-0.62,0.08c-0.43,0-0.86,0-1.28,0
		C35.55,16.63,35.52,16.61,35.49,16.58z"/>
	<path class="st1" d="M33.36,14.56c0-0.53,0.02-1.06,0-1.59c-0.01-0.31,0.08-0.45,0.42-0.44c2.01,0.07,1.55-0.39,1.62,1.63
		c0.01,0.34-0.14,0.42-0.44,0.41C34.42,14.55,33.89,14.56,33.36,14.56C33.36,14.56,33.36,14.56,33.36,14.56z"/>
	<path class="st2" d="M35.49,16.58c0.03,0.03,0.07,0.05,0.1,0.08c-0.04,0.01-0.07,0.02-0.11,0.03c0,0,0,0,0,0
		C35.48,16.65,35.48,16.62,35.49,16.58z"/>
	<path class="st2" d="M31.32,14.54l-0.05,0.01c0,0-0.04-0.01-0.04-0.01c0-0.03,0-0.06,0.01-0.08C31.27,14.48,31.3,14.51,31.32,14.54
		z"/>
	<path class="st0" d="M29.22,45.77c0.67,0.04,1.35-0.12,2.02,0.09c-0.18,0-0.35,0.01-0.53,0.01c-1.57,0-1.57,0-1.51,1.6
		c0,0.02,0,0.04,0,0.05c-0.03,0.27,0.09,0.38,0.37,0.37c0.4-0.01,0.81,0.02,1.21-0.01c0.34-0.02,0.48,0.09,0.46,0.44
		c-0.03,0.53-0.01,1.05-0.01,1.58c-2.6,0-5.2,0-7.8,0.01c-0.36,0-0.52-0.09-0.49-0.47c0.03-0.32-0.03-0.64,0.01-0.95
		c0.06-0.51-0.15-0.62-0.62-0.61c-1.72,0.03-3.43,0-5.15,0.02c-0.34,0-0.54-0.05-0.5-0.46c0.03-0.42-0.01-0.85,0.01-1.27
		c0.01-0.3-0.11-0.41-0.4-0.4c-0.39,0.02-0.78-0.01-1.17,0.01c-0.34,0.02-0.49-0.08-0.46-0.44c0.03-0.37-0.02-0.74,0.01-1.11
		c0.03-0.38-0.13-0.5-0.49-0.47c-0.39,0.02-0.78-0.02-1.17,0.01c-0.38,0.03-0.49-0.13-0.47-0.49c0.02-0.41-0.01-0.81,0.01-1.22
		c0.02-0.33-0.11-0.44-0.43-0.42c-0.44,0.02-0.88-0.01-1.33,0.01c-0.28,0.01-0.38-0.1-0.37-0.37c0.01-0.46-0.01-0.92,0.01-1.38
		c0.01-0.28-0.1-0.38-0.37-0.37C9.7,39.52,9.35,39.49,9,39.52c-0.45,0.04-0.62-0.09-0.6-0.58c0.04-1.01,0-2.02,0.02-3.02
		c0.01-0.39-0.07-0.59-0.52-0.55c-0.4,0.04-0.81-0.01-1.22,0.01c-0.31,0.01-0.4-0.11-0.39-0.41c0.01-0.74,0.01-1.49,0-2.23
		c-0.01-0.47,0.2-1.08-0.08-1.39c-0.31-0.34-0.94-0.12-1.42-0.11c-0.44,0.01-0.53-0.15-0.52-0.55c0.02-1.2,0.01-2.41,0.01-3.61
		c0,0,0,0.01,0,0.01c0.53,0,1.05-0.02,1.58,0C6.17,27.1,6.31,27,6.3,26.64c-0.03-0.56-0.01-1.12-0.01-1.69c0,0-0.01,0.01-0.01,0.01
		c0.56,0,1.13-0.01,1.69,0.01c0.36,0.02,0.46-0.12,0.44-0.46c-0.02-0.53,0-1.05,0-1.58c0,0-0.01,0.01-0.01,0.01
		c0.45-0.05,0.91-0.1,1.37-0.1c1.48,0.01,2.96,0,4.44,0.01c0.34,0,0.47-0.11,0.46-0.45c-0.02-0.53,0-1.06,0-1.59
		c2.76,0,5.53,0,8.29,0c0,0-0.01-0.01-0.01-0.01c0,0.58,0,1.16,0,1.75c0,0.2,0,0.3,0.3,0.33c0.58,0.06,1.15-0.01,1.73-0.02
		c0,2.78-0.01,5.57-0.01,8.35c0,0-0.01,0.01-0.01,0.01c-0.53,0-1.06,0.02-1.59,0c-0.31-0.01-0.44,0.09-0.44,0.42
		c0.01,3.19,0.01,6.39,0,9.58c0,0.34,0.14,0.42,0.44,0.41c0.53-0.02,1.06,0,1.59,0l-0.01-0.01c0.01,0.56,0.02,1.12,0.01,1.68
		c0,0.31,0.11,0.45,0.43,0.44c0.56-0.01,1.12,0,1.69,0c0,0-0.01-0.01-0.01-0.01c0,0.53,0.02,1.05,0,1.58
		c-0.01,0.34,0.09,0.48,0.45,0.46C28.1,45.76,28.66,45.78,29.22,45.77z"/>
	<path class="st3" d="M22.96,20.82c-2.76,0-5.53,0-8.29,0l0,0c0-0.67,0-1.35,0-2.02c0.02-0.03,0.04-0.03,0.07-0.02
		c2.68,0,5.36,0,8.04,0c0.27,0.05,0.17,0.27,0.17,0.42C22.96,19.74,22.96,20.28,22.96,20.82z"/>
	<path class="st3" d="M14.67,20.82c0,0.53-0.02,1.06,0,1.59c0.01,0.35-0.11,0.46-0.46,0.45c-1.48-0.01-2.96,0-4.44-0.01
		c-0.46,0-0.91,0.05-1.37,0.1c0-0.71,0-1.42,0-2.12c2.06,0,4.12,0.01,6.18,0.01C14.61,20.83,14.64,20.83,14.67,20.82L14.67,20.82z"
		/>
	<path class="st3" d="M24.98,22.87c-0.58,0.01-1.15,0.08-1.73,0.02c-0.3-0.03-0.3-0.13-0.3-0.33c0-0.58,0-1.16,0-1.75
		c0.56,0,1.12,0.02,1.68,0.01c0.27-0.01,0.41,0.03,0.38,0.37C24.97,21.75,24.99,22.31,24.98,22.87z"/>
	<path class="st0" d="M25.08,31.23c0,3.46,0,6.93,0,10.39c-0.04,0-0.08,0-0.11,0c0,0,0.01,0.01,0.01,0.01c0-3.47,0-6.94,0-10.4
		c0,0,0.01-0.01,0.01-0.01C25.01,31.23,25.04,31.23,25.08,31.23z"/>
	<path class="st4" d="M22.78,18.79c-2.68,0-5.36,0-8.04,0c0.13-0.09,0.27-0.07,0.41-0.07c2.4,0,4.81,0,7.21,0
		C22.51,18.72,22.65,18.7,22.78,18.79z"/>
	<path class="st4" d="M14.67,20.82c-0.03,0.01-0.06,0.01-0.09,0.01c0.08-0.67-0.07-1.36,0.09-2.03
		C14.67,19.48,14.67,20.15,14.67,20.82z"/>
	<path class="st4" d="M4.26,27.08c0,1.2,0.01,2.41-0.01,3.61c-0.01,0.4,0.08,0.56,0.52,0.55c0.48-0.01,1.11-0.24,1.42,0.11
		c0.28,0.31,0.08,0.91,0.08,1.39c0.01,0.74,0.01,1.49,0,2.23c-0.01,0.29,0.09,0.42,0.39,0.41c0.41-0.02,0.82,0.03,1.22-0.01
		c0.45-0.04,0.53,0.16,0.52,0.55c-0.02,1.01,0.02,2.02-0.02,3.02c-0.02,0.49,0.15,0.62,0.6,0.58c0.35-0.03,0.71,0,1.06-0.01
		c0.27-0.01,0.38,0.1,0.37,0.37c-0.01,0.46,0.01,0.92-0.01,1.38c-0.01,0.27,0.09,0.38,0.37,0.37c0.44-0.01,0.88,0.01,1.33-0.01
		c0.32-0.01,0.45,0.09,0.43,0.42c-0.02,0.41,0.02,0.81-0.01,1.22c-0.02,0.36,0.09,0.52,0.47,0.49c0.39-0.03,0.78,0.01,1.17-0.01
		c0.36-0.02,0.52,0.09,0.49,0.47c-0.03,0.37,0.01,0.74-0.01,1.11c-0.03,0.36,0.13,0.46,0.46,0.44c0.39-0.02,0.78,0.01,1.17-0.01
		c0.3-0.01,0.41,0.1,0.4,0.4c-0.02,0.42,0.02,0.85-0.01,1.27c-0.03,0.41,0.17,0.46,0.5,0.46c1.72-0.01,3.43,0.01,5.15-0.02
		c0.47-0.01,0.69,0.1,0.62,0.61c-0.04,0.31,0.01,0.64-0.01,0.95c-0.03,0.38,0.13,0.48,0.49,0.47c2.6-0.01,5.2-0.01,7.8-0.01l0,0
		c0,0.55,0.02,1.09,0,1.64c-0.01,0.37,0.14,0.51,0.5,0.49c0.55-0.02,1.09-0.01,1.64-0.02c1.38,0.01,2.75,0.01,4.13,0.02
		c0,0-0.01-0.01-0.01-0.01c0,0.51,0.05,1.03,0,1.54c-0.04,0.49,0.14,0.58,0.59,0.58c4.97-0.02,9.94-0.01,14.92-0.01
		c1.61,0,3.22-0.01,4.83,0.01c0.36,0,0.51-0.08,0.49-0.47c-0.03-0.55-0.01-1.1-0.01-1.64c0,0-0.01,0.01-0.01,0.01
		c1.41-0.01,2.82-0.01,4.23-0.02c2.62,0,5.24,0,7.85,0.02c0.35,0,0.47-0.12,0.45-0.46c-0.02-0.42,0.01-0.85-0.01-1.27
		c-0.01-0.3,0.11-0.41,0.4-0.4c0.44,0.02,0.88-0.01,1.33,0.01c0.3,0.01,0.41-0.11,0.4-0.4c-0.02-0.42,0-0.85-0.01-1.27
		c-0.01-0.24,0.08-0.37,0.34-0.35c0.12,0.01,0.25,0,0.37,0c1.7,0,3.4,0,5.09,0c0.31,0,0.49,0,0.4-0.43
		c-0.09-0.41-0.01-0.85-0.04-1.27c-0.02-0.33,0.11-0.43,0.43-0.43c0.76,0.02,1.52,0.01,2.28,0.01c1.51,0,1.53,0,1.52-1.51
		c0-0.45,0.16-0.53,0.55-0.52c1.04,0.02,2.09-0.01,3.13,0.02c0.38,0.01,0.5-0.13,0.47-0.49c-0.03-0.39,0.02-0.78-0.01-1.17
		c-0.03-0.37,0.11-0.49,0.48-0.48c1.08,0.02,2.16,0,3.24,0.01c0.31,0,0.45-0.09,0.43-0.42c-0.02-0.41,0.01-0.81-0.01-1.22
		c-0.02-0.36,0.08-0.52,0.47-0.49c0.35,0.03,0.71-0.02,1.06,0.01c0.45,0.04,0.66-0.09,0.6-0.58c-0.04-0.35,0.01-0.71-0.01-1.06
		c-0.01-0.3,0.11-0.4,0.4-0.4c1.24,0.02,2.48,0.02,3.71,0.02c0,1.94,0.01,3.88,0.01,5.82c-0.01,0.01-0.03,0.02-0.03,0.03
		c0.01,0.03,0.02,0.05,0.03,0.08c0.01,0.1,0.01,0.21,0.02,0.31c-0.55,0-1.09,0.01-1.64-0.02c-0.37-0.02-0.48,0.11-0.48,0.48
		c0.01,1.9,0,3.8,0,5.7c-0.66,0.01-1.33,0.02-1.99,0.03c-0.56-0.01-1.13,0-1.69-0.03c-0.39-0.02-0.47,0.14-0.47,0.49
		c0.01,1.25,0,2.5,0,3.75c0,0,0,0,0,0c-0.48,0-0.96,0.04-1.43-0.01c-0.52-0.04-0.69,0.16-0.69,0.66c0.02,1.17,0.01,2.33,0.01,3.5
		c0,0,0,0,0,0c-0.53,0-1.06,0.01-1.58-0.02c-0.35-0.02-0.46,0.11-0.45,0.45c0.02,1.23,0.01,2.46,0.01,3.69c0,0,0,0,0,0
		c-0.58,0-1.16,0.01-1.73-0.01c-0.3-0.01-0.4,0.11-0.39,0.4c0.01,0.58,0,1.15,0,1.73c0,0,0,0,0,0c-0.54,0-1.09,0.01-1.63-0.01
		c-0.3-0.01-0.41,0.1-0.4,0.4c0.02,0.54,0.01,1.09,0.01,1.63c0,0,0,0,0,0c-1.2,0-2.4,0.02-3.6-0.01c-0.45-0.01-0.59,0.14-0.55,0.57
		c0.03,0.31,0.01,0.64,0,0.95c-0.01,0.41-0.14,0.67-0.63,0.61c-0.35-0.04-0.71,0.01-1.06-0.01c-0.31-0.02-0.45,0.08-0.43,0.42
		c0.02,0.39-0.01,0.78,0.01,1.17c0.03,0.42-0.14,0.56-0.55,0.55c-1.02-0.02-2.05,0.01-3.07-0.02c-0.44-0.01-0.55,0.14-0.53,0.55
		c0.03,0.49,0.01,0.99,0.01,1.48c0,0,0,0,0,0c-1.27,0-2.53,0.01-3.8-0.01c-0.34,0-0.47,0.09-0.46,0.45
		c0.03,0.56,0.01,1.12,0.01,1.69c0,0,0,0,0,0c-1.23,0-2.46,0.01-3.7-0.01c-0.35-0.01-0.47,0.11-0.45,0.45
		c0.03,0.56,0.01,1.13,0.02,1.69c0,0.67-0.01,1.34-0.01,2.01c-2.6,0-5.2,0.01-7.79-0.01c-0.46,0-0.59,0.15-0.56,0.57
		c0.03,0.33-0.01,0.67,0.01,1.01c0.03,0.38-0.12,0.48-0.49,0.48c-1.87-0.02-3.75-0.01-5.62-0.01c-2.62,0-5.23-0.01-7.85,0.01
		c-0.44,0-0.58-0.12-0.57-0.56c0.01-0.48,0.24-1.13-0.12-1.41c-0.3-0.24-0.92-0.08-1.39-0.08c-2.28,0-4.56,0-6.84,0
		c0-0.55-0.02-1.09,0.01-1.64c0.02-0.39-0.14-0.47-0.49-0.46c-1.71,0.02-3.42-0.01-5.13,0.02c-0.46,0.01-0.62-0.11-0.6-0.59
		c0.03-0.49,0.08-0.99-0.05-1.47c0-0.51-0.03-1.03,0.01-1.54c0.04-0.47-0.12-0.6-0.59-0.59c-1.51,0.02-1.53,0-1.53-1.52
		c0-0.41-0.15-0.5-0.52-0.5c-1.2,0.02-2.4,0-3.6-0.01c0,0-0.01-0.01-0.01-0.01c0.11-0.52,0.07-1.04,0.09-1.57
		c0.02-0.37-0.1-0.56-0.51-0.54c-0.54,0.03-1.09,0.02-1.63,0.02c0,0,0,0,0,0c0-0.55-0.01-1.09,0.01-1.64
		c0.01-0.34-0.15-0.49-0.47-0.49c-0.39-0.01-0.78-0.03-1.16,0c-0.41,0.03-0.53-0.13-0.5-0.52c0.03-0.35-0.01-0.71,0.01-1.06
		c0.02-0.34-0.09-0.48-0.44-0.46c-0.53,0.03-1.06,0.01-1.58,0.01c0,0,0,0,0,0c0-0.56-0.01-1.12,0.01-1.68
		c0.01-0.34-0.09-0.47-0.45-0.46c-0.56,0.02-1.12,0.01-1.68,0.01h0c0-0.51-0.02-1.02,0.01-1.53c0.02-0.36-0.08-0.52-0.47-0.49
		c-0.37,0.03-0.74-0.01-1.11,0.01c-0.41,0.03-0.56-0.13-0.55-0.55c0.02-1.08-0.01-2.15,0.02-3.23c0.01-0.38-0.12-0.5-0.49-0.47
		C9.63,56.2,9.31,56.15,9,56.19c-0.45,0.05-0.62-0.09-0.6-0.58c0.04-1.04,0-2.08,0.02-3.12c0.01-0.35-0.11-0.47-0.45-0.45
		c-0.56,0.03-1.13,0.01-1.69,0.02c-0.53,0-1.06-0.02-1.59,0c-0.35,0.01-0.45-0.11-0.45-0.46c0.01-1.75-0.01-3.5,0.01-5.25
		c0.01-0.44-0.13-0.61-0.57-0.57c-0.35,0.03-0.71-0.02-1.06,0.01c-0.38,0.03-0.47-0.11-0.47-0.48c0.01-3.09,0.01-6.18,0.01-9.28
		c0-2.99,0-5.97,0-8.96C2.85,27.08,3.56,27.08,4.26,27.08z"/>
	<path class="st0" d="M50.02,52.03c0-0.55-0.02-1.1,0.01-1.64c0.02-0.39-0.14-0.49-0.49-0.47c-0.35,0.02-0.71-0.03-1.06,0.01
		c-0.49,0.06-0.59-0.15-0.58-0.6c0.03-1.02,0-2.05,0.02-3.08c0.01-0.37-0.11-0.51-0.48-0.48c-0.37,0.03-0.74-0.01-1.11,0.01
		c-0.36,0.03-0.45-0.13-0.45-0.46c0.02-1.04-0.01-2.09,0.02-3.13c0.01-0.43-0.09-0.59-0.55-0.57c-1.04,0.03-2.09,0-3.13,0.02
		c-0.37,0.01-0.49-0.1-0.48-0.48c0.02-1.68,0.01-3.36,0.01-5.04c0-0.87,0.09-0.74-0.77-0.75c-0.32,0-0.64-0.01-0.95,0
		c-0.26,0.01-0.38-0.08-0.38-0.36c0.01-1.86,0.01-3.71,0-5.57c0-0.25,0.1-0.34,0.35-0.34c0.42,0.01,0.85-0.01,1.27,0.01
		c0.35,0.02,0.49-0.15,0.49-0.47c0.01-0.37,0.02-0.74,0-1.11c-0.02-0.34,0.09-0.49,0.45-0.46c0.37,0.02,0.74-0.02,1.11,0.01
		c0.37,0.03,0.49-0.11,0.48-0.48c-0.02-1.22-0.01-2.44-0.01-3.66c0.01-0.01,0.03-0.03,0.04-0.04c4,0.01,7.99,0.02,11.99,0.02
		c0.02,0,0.04,0,0.05,0c0.29-0.01,0.46-0.13,0.44-0.46c-0.02-0.37,0.02-0.74-0.01-1.11c-0.03-0.4,0.09-0.56,0.52-0.55
		c0.99,0.03,1.98-0.02,2.97,0.02c0.54,0.03,0.69-0.13,0.67-0.67c-0.04-1.37-0.01-1.37,1.37-1.37c0.73,0,0.73,0,0.73-0.72
		c0-1.39,0-1.39,1.36-1.39c0.07,0,0.14-0.01,0.21,0c0.35,0.03,0.47-0.13,0.46-0.47c-0.02-0.55,0-1.1,0-1.64l0,0
		c0.58,0,1.17-0.01,1.75,0.01c0.27,0.01,0.38-0.09,0.37-0.37c-0.01-0.44,0.01-0.88,0-1.33c-0.01-0.25,0.09-0.35,0.34-0.34
		c0.41,0.01,0.81,0.02,1.22,0c0.38-0.03,0.48,0.13,0.48,0.49c-0.02,1.71,0.01,3.43-0.02,5.14c-0.01,0.51,0.12,0.68,0.64,0.65
		c0.47-0.03,1.07-0.21,1.38,0.08c0.31,0.3,0.1,0.91,0.1,1.38c0.01,2.76,0.02,5.51,0,8.27c0,0.48,0.14,0.62,0.6,0.58
		c0.51-0.04,1.02-0.01,1.54-0.01c0,0-0.01-0.01-0.01-0.01c0,2.09,0,4.18,0,6.27c0,0,0.01-0.01,0.01-0.01c-0.49,0-0.99,0.04-1.48,0
		c-0.5-0.04-0.68,0.1-0.66,0.63c0.04,1,0,2.01,0.02,3.02c0.01,0.38-0.08,0.55-0.5,0.52c-0.39-0.03-0.78,0.01-1.16-0.01
		c-0.34-0.02-0.47,0.12-0.47,0.46c0.02,0.79,0,1.59,0,2.38c0,1.38,0,1.38-1.36,1.39c-0.04,0-0.07,0-0.11,0
		c-0.42-0.06-0.61,0.08-0.57,0.54c0.04,0.49,0.01,0.99,0.01,1.48l0.01-0.01c-0.58,0-1.15,0.02-1.73,0.01
		c-0.29-0.01-0.41,0.09-0.4,0.39c0.01,0.58,0,1.15,0,1.73c0,0,0.01-0.01,0.01-0.01c-0.58,0-1.17,0.01-1.75-0.01
		c-0.27-0.01-0.38,0.1-0.37,0.37c0.01,0.39-0.02,0.78,0.01,1.16c0.03,0.41-0.12,0.51-0.51,0.5c-1.06-0.02-2.12,0.01-3.18-0.02
		c-0.38-0.01-0.49,0.12-0.47,0.49c0.03,0.55,0,1.09,0,1.64c0,0,0.01-0.01,0.01-0.01C55.55,52.03,52.78,52.03,50.02,52.03z"/>
	<path class="st0" d="M97.87,37.51c-1.24-0.01-2.48-0.01-3.71-0.02c-0.29,0-0.42,0.09-0.4,0.4c0.02,0.35-0.03,0.71,0.01,1.06
		c0.06,0.49-0.15,0.62-0.6,0.58c-0.35-0.03-0.71,0.02-1.06-0.01c-0.39-0.03-0.49,0.13-0.47,0.49c0.02,0.41-0.01,0.81,0.01,1.22
		c0.02,0.33-0.12,0.42-0.43,0.42c-1.08-0.01-2.16,0.01-3.24-0.01c-0.37-0.01-0.51,0.11-0.48,0.48c0.03,0.39-0.01,0.78,0.01,1.17
		c0.02,0.36-0.09,0.5-0.47,0.49c-1.04-0.02-2.09,0.01-3.13-0.02c-0.39-0.01-0.56,0.08-0.55,0.52c0.01,1.51-0.01,1.51-1.52,1.51
		c-0.76,0-1.52,0.01-2.28-0.01c-0.32-0.01-0.45,0.1-0.43,0.43c0.03,0.42-0.05,0.86,0.04,1.27c0.1,0.43-0.09,0.43-0.4,0.43
		c-1.7-0.01-3.4,0-5.09,0c-0.12,0-0.25,0.01-0.37,0c-0.26-0.02-0.34,0.11-0.34,0.35c0.01,0.42-0.01,0.85,0.01,1.27
		c0.01,0.3-0.1,0.41-0.4,0.4c-0.44-0.02-0.88,0.01-1.33-0.01c-0.3-0.01-0.42,0.09-0.4,0.4c0.02,0.42-0.01,0.85,0.01,1.27
		c0.02,0.34-0.09,0.46-0.45,0.46c-2.62-0.02-5.24-0.02-7.85-0.02c0-0.53,0.02-1.06,0-1.58C62.52,50.09,62.66,49.98,63,50
		c0.39,0.02,0.77-0.01,1.16,0.01c0.33,0.02,0.43-0.11,0.42-0.43c-0.02-0.56,0-1.13,0-1.69c0,0-0.01,0.01-0.01,0.01
		c0.58,0,1.16-0.02,1.73,0c0.3,0.01,0.4-0.1,0.39-0.4c-0.01-0.58,0-1.15,0-1.73c0,0-0.01,0.01-0.01,0.01c0.57,0,1.13,0,1.7,0.01
		c0.29,0.01,0.42-0.12,0.42-0.41c-0.01-0.41,0.01-0.81,0-1.22c-0.01-0.29,0.09-0.42,0.39-0.41c0.41,0.02,0.81-0.01,1.22,0.01
		c0.32,0.02,0.44-0.1,0.43-0.42c-0.02-0.72-0.02-1.45,0-2.17c0.01-0.49-0.21-1.11,0.09-1.44c0.31-0.34,0.94-0.07,1.42-0.12
		c0.02,0,0.04,0,0.05,0c0.45,0.06,0.57-0.16,0.56-0.58c-0.02-1.22,0-2.44,0-3.66c0,0-0.01,0.01-0.01,0.01
		c0.53,0,1.06-0.01,1.59,0.01c0.3,0.01,0.45-0.07,0.44-0.41c-0.01-1.82-0.01-3.64,0-5.45c0-0.35-0.15-0.41-0.45-0.4
		c-0.53,0.01-1.06,0-1.59-0.01c0,0,0.01,0.01,0.01,0.01c0-2.61,0-5.22-0.02-7.83c0-0.4,0.17-0.46,0.51-0.45
		c1.92,0.01,3.85,0.01,5.77,0.01c0,0.53,0.02,1.06-0.01,1.59c-0.03,0.44,0.15,0.53,0.55,0.53c2.37-0.02,4.73,0.01,7.1-0.02
		c0.55-0.01,0.68,0.16,0.66,0.68c-0.04,1.37-0.01,1.37,1.37,1.37c0.92,0,1.84,0,2.76,0c0,0.58,0.01,1.17,0,1.75
		c-0.01,0.28,0.1,0.37,0.37,0.37c0.58-0.01,1.17,0,1.75,0c0,1.23,0.01,2.46-0.01,3.69c0,0.34,0.1,0.47,0.45,0.46
		c0.53-0.02,1.05,0,1.58,0c0,1.16,0.03,2.32,0,3.48c-0.02,0.55,0.18,0.71,0.7,0.67c0.47-0.04,0.95-0.01,1.42-0.01
		C97.89,36.08,97.88,36.8,97.87,37.51z"/>
	<path class="st0" d="M66.7,10.43c0-0.71,0-1.42,0-2.13c0.67,0,1.34,0,2.01,0c0,0.58,0,1.16,0.01,1.73c0.01,0.3-0.1,0.4-0.4,0.4
		C67.78,10.41,67.24,10.42,66.7,10.43z"/>
	<path class="st0" d="M64.56,12.54c0-0.54,0.02-1.09,0-1.63c-0.01-0.37,0.14-0.5,0.5-0.49c0.54,0.02,1.09,0.01,1.63,0.01
		c0,0.55-0.02,1.09,0,1.64c0.01,0.3-0.11,0.39-0.4,0.4C65.71,12.48,65.13,12.36,64.56,12.54z"/>
	<path class="st0" d="M62.55,14.56c-0.01-0.59-0.01-1.19-0.05-1.78c-0.01-0.24,0.04-0.32,0.28-0.28c0.59,0.1,1.19,0.02,1.78,0.04
		c0,0.68,0,1.35,0.01,2.03c0,0,0,0,0,0C63.9,14.56,63.22,14.56,62.55,14.56z"/>
	<path class="st0" d="M6.27,52.05c0.56,0,1.13,0.01,1.69-0.02c0.35-0.02,0.46,0.11,0.45,0.45c-0.02,1.04,0.02,2.08-0.02,3.12
		C8.37,56.1,8.54,56.23,9,56.19c0.31-0.03,0.64,0.01,0.95-0.01c0.37-0.03,0.49,0.1,0.49,0.47c-0.02,1.08,0.01,2.15-0.02,3.23
		c-0.01,0.42,0.14,0.58,0.55,0.55c0.37-0.02,0.74,0.02,1.11-0.01c0.39-0.03,0.49,0.14,0.47,0.49c-0.02,0.51-0.01,1.02-0.01,1.53
		c-0.71,0-1.41,0-2.12,0c0-0.54-0.01-1.09,0.01-1.63c0.01-0.3-0.1-0.41-0.4-0.4c-0.54,0.02-1.09,0.01-1.63,0.01
		c0-1.23-0.02-2.46,0-3.69c0.01-0.41-0.12-0.57-0.54-0.55c-0.53,0.03-1.06,0-1.58,0C6.28,54.8,6.27,53.43,6.27,52.05z"/>
	<path class="st0" d="M97.88,43.44c-0.01-0.03-0.02-0.05-0.03-0.08c0-0.01,0.02-0.02,0.03-0.03C97.88,43.37,97.88,43.4,97.88,43.44z
		"/>
	<path class="st0" d="M20.85,70.81c1.2,0,2.4,0.02,3.6,0.01c0.38-0.01,0.52,0.08,0.52,0.5c0,1.53,0.02,1.55,1.53,1.52
		c0.47-0.01,0.63,0.12,0.59,0.59c-0.04,0.51-0.01,1.02-0.01,1.54c-0.71,0-1.41,0-2.12,0c0-0.51-0.02-1.02,0.01-1.53
		c0.03-0.45-0.09-0.61-0.58-0.6c-1.19,0.03-2.39,0.01-3.58,0C20.84,72.16,20.85,71.49,20.85,70.81z"/>
	<path class="st0" d="M68.71,74.97c0-0.56,0.02-1.13-0.01-1.69c-0.02-0.35,0.12-0.45,0.46-0.45c1.27,0.02,2.53,0.01,3.8,0.01
		c0,0.71-0.01,1.41-0.01,2.12C71.54,74.97,70.13,74.97,68.71,74.97z"/>
	<path class="st0" d="M64.58,77.1c0-0.56,0.01-1.13-0.02-1.69c-0.02-0.35,0.11-0.46,0.45-0.45c1.23,0.02,2.46,0.01,3.7,0.01
		c0,0.53-0.02,1.06,0.01,1.59c0.02,0.36-0.13,0.45-0.46,0.44C67.24,76.99,66.22,77,65.19,77C64.98,77,64.77,76.96,64.58,77.1z"/>
	<path class="st0" d="M59.69,4.18c-0.18,0.12-0.36,0.12-0.54,0C59.33,4.18,59.51,4.18,59.69,4.18z"/>
	<path class="st0" d="M58.73,4.18c-0.07,0.09-0.15,0.09-0.22,0C58.59,4.18,58.66,4.18,58.73,4.18z"/>
	<path class="st0" d="M72.96,72.85c0-0.49,0.02-0.99-0.01-1.48c-0.02-0.4,0.09-0.56,0.53-0.55c1.02,0.03,2.05,0,3.07,0.02
		c0.41,0.01,0.58-0.13,0.55-0.55c-0.03-0.39,0.01-0.78-0.01-1.17c-0.02-0.33,0.12-0.43,0.43-0.42c0.35,0.02,0.71-0.03,1.06,0.01
		c0.49,0.06,0.62-0.2,0.63-0.61c0.01-0.32,0.03-0.64,0-0.95c-0.04-0.43,0.1-0.59,0.55-0.57c1.2,0.03,2.4,0.01,3.6,0.01
		c-0.03,0.58-0.09,1.16-0.09,1.74c0,0.32-0.14,0.38-0.42,0.38c-1.06-0.01-2.12,0.01-3.18-0.01c-0.38-0.01-0.49,0.13-0.48,0.49
		c0.02,0.55,0.01,1.09,0.01,1.64c-0.58,0-1.16,0.01-1.73,0c-0.29-0.01-0.41,0.1-0.4,0.4c0.02,0.54,0.01,1.09,0.01,1.63
		C75.71,72.84,74.34,72.84,72.96,72.85z"/>
	<path class="st0" d="M83.36,66.58c0-0.54,0.01-1.09-0.01-1.63c-0.01-0.3,0.1-0.41,0.4-0.4c0.54,0.02,1.09,0.01,1.63,0.01
		c0,0.67,0,1.34,0,2.01C84.71,66.58,84.03,66.58,83.36,66.58z"/>
	<path class="st0" d="M91.63,54.15c0-1.25,0.01-2.5,0-3.75c0-0.35,0.08-0.51,0.47-0.49c0.56,0.03,1.13,0.02,1.69,0.03
		c-0.01,1.4-0.02,2.81-0.03,4.21C93.05,54.15,92.34,54.15,91.63,54.15z"/>
	<path class="st0" d="M89.53,58.31c0-1.17,0.01-2.33-0.01-3.5c-0.01-0.5,0.17-0.71,0.69-0.66c0.47,0.04,0.95,0.01,1.43,0.01
		c0,1.38,0,2.76,0.01,4.14C90.93,58.3,90.23,58.31,89.53,58.31z"/>
	<path class="st0" d="M87.5,62.44c0-1.23,0.01-2.46-0.01-3.69c0-0.34,0.1-0.47,0.45-0.45c0.53,0.03,1.05,0.01,1.58,0.02
		c0,1.38-0.01,2.75-0.01,4.13C88.85,62.44,88.17,62.44,87.5,62.44z"/>
	<path class="st0" d="M14.66,64.57c0.53,0,1.06,0.01,1.58-0.01c0.36-0.02,0.47,0.12,0.44,0.46c-0.02,0.35,0.02,0.71-0.01,1.06
		c-0.03,0.38,0.09,0.55,0.5,0.52c0.38-0.03,0.77-0.01,1.16,0c0.32,0,0.48,0.15,0.47,0.49c-0.02,0.55-0.01,1.09-0.01,1.64
		c-0.7-0.01-1.4-0.01-2.1-0.02c0-0.53-0.02-1.06,0.01-1.58c0.02-0.4-0.17-0.53-0.53-0.53c-0.35,0.01-0.7-0.02-1.05,0.01
		c-0.34,0.02-0.48-0.09-0.46-0.44C14.68,65.62,14.66,65.1,14.66,64.57z"/>
	<path class="st0" d="M12.55,62.44c0.56,0,1.12,0.02,1.68-0.01c0.35-0.01,0.46,0.12,0.45,0.46c-0.02,0.56-0.01,1.12-0.01,1.68
		c-0.7,0-1.41-0.01-2.11-0.01C12.55,63.85,12.55,63.15,12.55,62.44z"/>
	<path class="st0" d="M18.8,68.72c0.54-0.01,1.09,0.01,1.63-0.02c0.4-0.02,0.52,0.16,0.51,0.54c-0.02,0.52,0.03,1.05-0.09,1.57
		c-0.68,0.01-1.35,0.02-2.03,0.02C18.81,70.12,18.8,69.42,18.8,68.72z"/>
	<path class="st3" d="M8.4,22.94c0,0.53-0.02,1.05,0,1.58c0.01,0.34-0.09,0.48-0.44,0.46c-0.56-0.03-1.12-0.01-1.69-0.01
		c0-0.71,0.01-1.41,0.01-2.12C6.99,22.92,7.7,22.81,8.4,22.94z"/>
	<path class="st3" d="M6.28,24.96c0,0.56-0.01,1.12,0.01,1.69C6.31,27,6.17,27.1,5.84,27.09c-0.53-0.02-1.05,0-1.58,0
		c0-0.06-0.01-0.11-0.01-0.17c0.02-0.57,0.07-1.15-0.02-1.72c-0.02-0.08-0.04-0.15-0.06-0.23c0.11,0.01,0.21,0.03,0.32,0.04
		c0.03,0,0.06,0,0.09,0C5.15,24.99,5.72,24.97,6.28,24.96z"/>
	<path class="st4" d="M4.58,25.01c-0.03,0-0.06,0-0.09,0C4.52,24.99,4.55,24.99,4.58,25.01z"/>
	<path class="st4" d="M4.22,25.19c0.09,0.57,0.05,1.15,0.02,1.72C4.12,26.34,4.17,25.77,4.22,25.19z"/>
	<path class="st0" d="M85.38,64.57c0-0.58,0.01-1.15,0-1.73c-0.01-0.29,0.09-0.41,0.39-0.4c0.58,0.02,1.15,0.01,1.73,0.01
		c0,0.71,0,1.41-0.01,2.12C86.79,64.56,86.08,64.56,85.38,64.57z"/>
	<path class="st1" d="M50.02,52.03c2.76,0,5.53,0.01,8.29,0.01c0,0.55-0.02,1.1,0.01,1.64c0.02,0.39-0.13,0.47-0.49,0.47
		c-1.61-0.02-3.22-0.01-4.83-0.01c-4.97,0-9.94-0.01-14.92,0.01c-0.46,0-0.64-0.1-0.59-0.58c0.04-0.51,0-1.02,0-1.54
		C41.67,52.03,45.84,52.03,50.02,52.03z"/>
	<path class="st1" d="M37.5,52.04c-1.38-0.01-2.75-0.01-4.13-0.02c0.03-0.69-0.13-1.4,0.1-2.09c1.19,0,2.37,0.01,3.55-0.01
		c0.35-0.01,0.52,0.07,0.49,0.47C37.48,50.94,37.5,51.49,37.5,52.04z"/>
	<path class="st1" d="M31.23,49.91c0-0.53-0.01-1.06,0.01-1.58c0.02-0.35-0.12-0.46-0.46-0.44c-0.4,0.02-0.81-0.01-1.21,0.01
		c-0.27,0.01-0.39-0.1-0.37-0.37c0-0.02,0-0.04,0-0.05c-0.06-1.6-0.06-1.6,1.51-1.6c0.18,0,0.35,0,0.53-0.01
		c0.01,0.6,0.02,1.21,0.02,1.81c-0.01,0.02-0.02,0.03-0.02,0.05c0.01,0.03,0.03,0.06,0.05,0.08c0.08,0.02,0.16,0.04,0.24,0.06
		c0.04,0,0.08,0.01,0.12,0.01c0.44,0,0.88,0.02,1.32,0c0.31-0.01,0.39,0.11,0.39,0.4c-0.01,0.55,0.01,1.09,0.01,1.64
		C32.66,49.91,31.95,49.91,31.23,49.91L31.23,49.91z"/>
	<path class="st0" d="M43.76,22.95c-0.26-0.16-0.55-0.09-0.83-0.1c-0.93-0.01-1.86-0.03-2.8,0.01c-0.44,0.02-0.54-0.14-0.52-0.54
		c0.03-0.49,0-0.98-0.01-1.48c0,0,0.03-0.03,0.03-0.03c1.38,0,2.76,0.01,4.13,0.01c0,0-0.01-0.01-0.01-0.01
		c0.01,0.7,0.02,1.4,0.04,2.09C43.78,22.92,43.77,22.94,43.76,22.95z"/>
	<path class="st0" d="M37.59,18.7c0.68,0,1.36,0,2.03,0c0,0-0.01-0.01-0.01-0.01c0.01,0.71,0.01,1.41,0.02,2.12
		c0,0-0.03,0.03-0.03,0.03c-0.58-0.01-1.16-0.02-1.74-0.01c-0.27,0-0.37-0.09-0.37-0.37c0.01-0.58-0.02-1.16-0.03-1.73
		c0,0,0.03-0.04,0.03-0.04C37.53,18.7,37.56,18.7,37.59,18.7z"/>
	<path class="st0" d="M31.23,49.91c0.72,0,1.43,0,2.15,0c0.03,0,0.06,0,0.09,0.02c-0.23,0.69-0.07,1.39-0.1,2.09
		c-0.55,0.01-1.09,0-1.64,0.02c-0.36,0.01-0.51-0.12-0.5-0.49C31.25,51,31.23,50.46,31.23,49.91z"/>
	<path class="st1" d="M24.97,41.63c0.04,0,0.08,0,0.11,0c0.53,0,1.06,0.02,1.58,0c0.34-0.01,0.47,0.08,0.46,0.44
		c-0.03,0.56-0.02,1.13-0.02,1.69c-0.56,0-1.12-0.01-1.69,0c-0.32,0.01-0.44-0.13-0.43-0.44C24.99,42.75,24.97,42.19,24.97,41.63z"
		/>
	<path class="st1" d="M29.22,45.77c-0.56,0-1.12-0.01-1.69,0.01c-0.36,0.02-0.46-0.12-0.45-0.46c0.02-0.53,0-1.05,0-1.58
		c0.54,0,1.09,0.02,1.63-0.01c0.41-0.03,0.51,0.13,0.49,0.51C29.19,44.75,29.22,45.26,29.22,45.77z"/>
	<path class="st0" d="M35.47,16.69c0.04-0.01,0.07-0.02,0.11-0.03c0.43,0,0.86,0,1.28,0c0.21,0,0.42,0,0.63,0.01
		c0.01,0.64,0.01,1.29,0.02,1.93c-0.01,0.03-0.01,0.06-0.01,0.09c0,0-0.03,0.04-0.03,0.04c-0.49-0.01-0.99-0.04-1.48-0.01
		c-0.44,0.03-0.55-0.15-0.53-0.55C35.49,17.68,35.47,17.18,35.47,16.69z"/>
	<path class="st0" d="M31.3,47.8c-0.02-0.03-0.03-0.05-0.05-0.08c0-0.01,0.01-0.03,0.02-0.05c0.01,0.03,0.03,0.06,0.04,0.08
		C31.31,47.77,31.3,47.79,31.3,47.8z"/>
	<path class="st0" d="M31.66,47.88c-0.04,0-0.08-0.01-0.12-0.01C31.59,47.82,31.63,47.84,31.66,47.88z"/>
	<path class="st1" d="M43.8,22.91c-0.01-0.7-0.02-1.4-0.04-2.09c3.3,0,6.6-0.01,9.9,0.01c0.44,0,0.57-0.14,0.51-0.54
		c-0.01-0.03,0-0.07,0-0.11c0.05-0.47-0.21-1.08,0.11-1.37c0.31-0.28,0.91-0.08,1.38-0.09c0.88-0.02,1.76-0.01,2.65-0.02
		c0.54,0,1.09-0.01,1.63,0.01c0.35,0.01,0.52-0.07,0.49-0.46c-0.03-0.52-0.02-1.05-0.02-1.58c0.01-0.03,0.02-0.05,0.03-0.08
		c0.53,0.13,1.08,0.05,1.62,0.08c0.3,0.02,0.4-0.1,0.4-0.4c-0.01-0.58-0.04-1.15,0.08-1.72c0,0,0,0,0,0c0.67,0,1.35,0,2.02,0
		c0,0.55-0.01,1.1,0,1.64c0.01,0.34-0.11,0.5-0.46,0.47c-0.07-0.01-0.14,0-0.21,0c-1.36,0.01-1.36,0.01-1.36,1.39
		c0,0.72,0,0.72-0.73,0.72c-1.38,0-1.41,0-1.37,1.37c0.02,0.54-0.13,0.7-0.67,0.67c-0.99-0.05-1.98,0.01-2.97-0.02
		c-0.44-0.01-0.56,0.14-0.52,0.55c0.03,0.37-0.01,0.74,0.01,1.11c0.01,0.33-0.15,0.45-0.44,0.46c-0.02,0-0.04,0-0.05,0
		C51.79,22.93,47.79,22.92,43.8,22.91z"/>
	<path class="st1" d="M39.63,20.81c-0.01-0.71-0.01-1.41-0.02-2.12c1.35,0.02,2.7,0.04,4.04,0.05c0.02,0.03,0.04,0.04,0.07,0.05
		c0.01,0.67,0.02,1.35,0.03,2.02C42.39,20.82,41.01,20.81,39.63,20.81z"/>
	<path class="st0" d="M62.55,14.56c-0.12,0.57-0.1,1.15-0.08,1.72c0.01,0.29-0.1,0.41-0.4,0.4c-0.54-0.03-1.09,0.05-1.62-0.08
		c-0.01-0.54,0-1.09-0.02-1.63c-0.02-0.34,0.14-0.41,0.44-0.41C61.42,14.57,61.99,14.56,62.55,14.56z"/>
	<path class="st0" d="M60.42,16.68c0,0.53-0.01,1.05,0.02,1.58c0.02,0.39-0.14,0.48-0.49,0.46c-0.54-0.02-1.09-0.01-1.63-0.01
		c0-0.51,0.03-1.02-0.01-1.52c-0.03-0.44,0.15-0.53,0.55-0.52C59.37,16.7,59.89,16.68,60.42,16.68z"/>
	<path class="st2" d="M43.73,18.8c-0.03-0.01-0.05-0.03-0.07-0.05C43.69,18.77,43.71,18.78,43.73,18.8z"/>
	<path class="st2" d="M37.5,16.67c-0.21,0-0.42,0-0.63-0.01c0.19-0.15,0.42-0.05,0.62-0.08C37.5,16.61,37.5,16.64,37.5,16.67z"/>
	<path class="st2" d="M37.51,18.69c0-0.03,0-0.06,0.01-0.09c0.03,0.03,0.05,0.07,0.08,0.1C37.56,18.7,37.53,18.7,37.51,18.69z"/>
	<path class="st1" d="M24.97,31.23c0,3.47,0,6.94,0,10.4c-0.53,0-1.06-0.01-1.59,0c-0.31,0.01-0.44-0.07-0.44-0.41
		c0.01-3.19,0.01-6.39,0-9.58c0-0.33,0.12-0.43,0.44-0.42C23.91,31.25,24.44,31.23,24.97,31.23z"/>
	<path class="st1" d="M64.57,47.89c0,0.56-0.02,1.13,0,1.69c0.01,0.32-0.09,0.45-0.42,0.43C63.77,49.99,63.38,50.02,63,50
		c-0.34-0.02-0.48,0.09-0.46,0.44c0.02,0.53,0,1.05,0,1.58c-1.41,0.01-2.82,0.01-4.23,0.02c0-0.55,0.02-1.1,0-1.64
		c-0.02-0.36,0.09-0.49,0.47-0.49c1.06,0.02,2.12-0.01,3.18,0.02c0.39,0.01,0.55-0.1,0.51-0.5c-0.03-0.39,0-0.78-0.01-1.16
		c-0.01-0.27,0.09-0.38,0.37-0.37C63.41,47.9,63.99,47.89,64.57,47.89z"/>
	<path class="st1" d="M72.96,35.37c0,1.22-0.02,2.44,0,3.66c0.01,0.43-0.11,0.64-0.56,0.58c-0.02,0-0.04,0-0.05,0
		c-0.48,0.05-1.11-0.22-1.42,0.12c-0.3,0.33-0.08,0.95-0.09,1.44c-0.01,0.72-0.02,1.45,0,2.17c0.01,0.33-0.11,0.44-0.43,0.42
		c-0.41-0.02-0.81,0.01-1.22-0.01c-0.31-0.01-0.4,0.12-0.39,0.41c0.02,0.41,0,0.81,0,1.22c0,0.29-0.12,0.42-0.42,0.41
		c-0.56-0.01-1.13-0.01-1.7-0.01c0-0.49,0.03-0.99-0.01-1.48c-0.04-0.46,0.15-0.61,0.57-0.54c0.03,0.01,0.07,0,0.11,0
		c1.36,0,1.36,0,1.36-1.39c0-0.79,0.01-1.59,0-2.38c-0.01-0.34,0.12-0.48,0.47-0.46c0.39,0.02,0.78-0.02,1.16,0.01
		c0.41,0.04,0.51-0.14,0.5-0.52C70.82,38,70.86,37,70.82,35.99c-0.02-0.53,0.16-0.67,0.66-0.63C71.97,35.4,72.46,35.37,72.96,35.37z
		"/>
	<path class="st1" d="M72.95,29.1c0.53,0,1.06,0.02,1.59,0.01c0.3-0.01,0.45,0.06,0.45,0.4c-0.01,1.82-0.01,3.64,0,5.45
		c0,0.34-0.14,0.42-0.44,0.41c-0.53-0.02-1.06-0.01-1.59-0.01C72.95,33.28,72.95,31.19,72.95,29.1z"/>
	<path class="st1" d="M66.69,45.77c0,0.58-0.02,1.16,0,1.73c0.01,0.29-0.1,0.4-0.39,0.4c-0.58-0.01-1.15,0-1.73,0
		c0-0.58,0.02-1.15,0-1.73c-0.01-0.3,0.11-0.4,0.4-0.39C65.54,45.79,66.12,45.77,66.69,45.77z"/>
</g>
</svg>
